# xmcd
#
# Track frame offsets:
#	150
#	17902
#	34740
#	60300
#	76800
#	97240
#	117757
#	144665
#	160097
#	176207
#	186972
#	200230
#	223977
#
# Disc length: 3186 seconds
#
# Revision: 1
# Processed by: cddbd v1.5.1PL0 Copyright (c) Steve Scherf et al.
# Submitted via: EasyCDDAExtractor 7.0.3.1
#
DISCID=bf0c700d
DTITLE=The Bluesscatters - Heart and Soul
DYEAR=1900
DGENRE=Blues
TTITLE0=What Can I Do
TTITLE1=Crossroad
TTITLE2=See You In The Evening
TTITLE3=Grandma's Sweet Patatoe Pie
TTITLE4=Last Night
TTITLE5=When Do We Stop Starting Over Again
TTITLE6=Dead And Gone
TTITLE7=Heart And Sould
TTITLE8=Highway 44
TTITLE9=Burning Baby's Blues
TTITLE10=Hold On
TTITLE11=Homeland
TTITLE12=Whisky And a Gun
EXTD=
EXTT0=
EXTT1=
EXTT2=
EXTT3=
EXTT4=
EXTT5=
EXTT6=
EXTT7=
EXTT8=
EXTT9=
EXTT10=
EXTT11=
EXTT12=
PLAYORDER=
